<mxfile host="app.diagrams.net" modified="2022-07-31T17:11:35.310Z" agent="5.0 (Windows NT 10.0; Win64; x64) AppleWebKit/537.36 (KHTML, like Gecko) Chrome/103.0.5060.134 Safari/537.36" etag="nVB09PYSsJnwjHEq5rtO" version="20.2.2" type="github">
  <diagram id="tImk9Id2bw4HW6ncSVgV" name="Page-1">
    <mxGraphModel dx="1730" dy="2018" grid="1" gridSize="10" guides="1" tooltips="1" connect="1" arrows="1" fold="1" page="1" pageScale="1" pageWidth="850" pageHeight="1100" math="0" shadow="0">
      <root>
        <mxCell id="0" />
        <mxCell id="1" parent="0" />
        <mxCell id="bE4bb6kHZ0PcFhRLUBJm-4" value="user" style="rounded=0;whiteSpace=wrap;html=1;" vertex="1" parent="1">
          <mxGeometry x="140" y="230" width="120" height="60" as="geometry" />
        </mxCell>
        <mxCell id="bE4bb6kHZ0PcFhRLUBJm-6" value="email" style="ellipse;whiteSpace=wrap;html=1;" vertex="1" parent="1">
          <mxGeometry x="60" y="60" width="80" height="60" as="geometry" />
        </mxCell>
        <mxCell id="bE4bb6kHZ0PcFhRLUBJm-7" value="userid" style="ellipse;whiteSpace=wrap;html=1;" vertex="1" parent="1">
          <mxGeometry x="20" y="130" width="80" height="60" as="geometry" />
        </mxCell>
        <mxCell id="bE4bb6kHZ0PcFhRLUBJm-8" value="password" style="ellipse;whiteSpace=wrap;html=1;" vertex="1" parent="1">
          <mxGeometry x="150" y="30" width="80" height="60" as="geometry" />
        </mxCell>
        <mxCell id="bE4bb6kHZ0PcFhRLUBJm-9" value="college_id" style="ellipse;whiteSpace=wrap;html=1;" vertex="1" parent="1">
          <mxGeometry x="240" y="20" width="80" height="60" as="geometry" />
        </mxCell>
        <mxCell id="bE4bb6kHZ0PcFhRLUBJm-10" value="type" style="ellipse;whiteSpace=wrap;html=1;" vertex="1" parent="1">
          <mxGeometry x="345" y="20" width="80" height="60" as="geometry" />
        </mxCell>
        <mxCell id="bE4bb6kHZ0PcFhRLUBJm-14" value="" style="endArrow=none;html=1;rounded=0;entryX=0.5;entryY=1;entryDx=0;entryDy=0;exitX=0.5;exitY=0;exitDx=0;exitDy=0;" edge="1" parent="1" source="bE4bb6kHZ0PcFhRLUBJm-4" target="bE4bb6kHZ0PcFhRLUBJm-10">
          <mxGeometry width="50" height="50" relative="1" as="geometry">
            <mxPoint x="400" y="210" as="sourcePoint" />
            <mxPoint x="460" y="130" as="targetPoint" />
          </mxGeometry>
        </mxCell>
        <mxCell id="bE4bb6kHZ0PcFhRLUBJm-15" value="" style="endArrow=none;html=1;rounded=0;entryX=0.5;entryY=1;entryDx=0;entryDy=0;exitX=0.5;exitY=0;exitDx=0;exitDy=0;" edge="1" parent="1" source="bE4bb6kHZ0PcFhRLUBJm-4" target="bE4bb6kHZ0PcFhRLUBJm-9">
          <mxGeometry width="50" height="50" relative="1" as="geometry">
            <mxPoint x="310" y="240" as="sourcePoint" />
            <mxPoint x="395" y="90" as="targetPoint" />
          </mxGeometry>
        </mxCell>
        <mxCell id="bE4bb6kHZ0PcFhRLUBJm-16" value="" style="endArrow=none;html=1;rounded=0;entryX=0.5;entryY=1;entryDx=0;entryDy=0;exitX=0.5;exitY=0;exitDx=0;exitDy=0;" edge="1" parent="1" source="bE4bb6kHZ0PcFhRLUBJm-4" target="bE4bb6kHZ0PcFhRLUBJm-8">
          <mxGeometry width="50" height="50" relative="1" as="geometry">
            <mxPoint x="330" y="260" as="sourcePoint" />
            <mxPoint x="290" y="90" as="targetPoint" />
          </mxGeometry>
        </mxCell>
        <mxCell id="bE4bb6kHZ0PcFhRLUBJm-17" value="" style="endArrow=none;html=1;rounded=0;entryX=1;entryY=1;entryDx=0;entryDy=0;exitX=0.5;exitY=0;exitDx=0;exitDy=0;" edge="1" parent="1" source="bE4bb6kHZ0PcFhRLUBJm-4" target="bE4bb6kHZ0PcFhRLUBJm-6">
          <mxGeometry width="50" height="50" relative="1" as="geometry">
            <mxPoint x="340" y="270" as="sourcePoint" />
            <mxPoint x="200" y="100" as="targetPoint" />
          </mxGeometry>
        </mxCell>
        <mxCell id="bE4bb6kHZ0PcFhRLUBJm-18" value="" style="endArrow=none;html=1;rounded=0;entryX=1;entryY=1;entryDx=0;entryDy=0;exitX=0.5;exitY=0;exitDx=0;exitDy=0;" edge="1" parent="1" source="bE4bb6kHZ0PcFhRLUBJm-4" target="bE4bb6kHZ0PcFhRLUBJm-7">
          <mxGeometry width="50" height="50" relative="1" as="geometry">
            <mxPoint x="350" y="280" as="sourcePoint" />
            <mxPoint x="138.2842712474619" y="121.21320343559637" as="targetPoint" />
          </mxGeometry>
        </mxCell>
        <mxCell id="bE4bb6kHZ0PcFhRLUBJm-19" value="collage" style="rounded=0;whiteSpace=wrap;html=1;" vertex="1" parent="1">
          <mxGeometry x="620" y="230" width="120" height="60" as="geometry" />
        </mxCell>
        <mxCell id="bE4bb6kHZ0PcFhRLUBJm-20" value="can have" style="rhombus;whiteSpace=wrap;html=1;" vertex="1" parent="1">
          <mxGeometry x="410" y="220" width="80" height="80" as="geometry" />
        </mxCell>
        <mxCell id="bE4bb6kHZ0PcFhRLUBJm-21" value="" style="endArrow=none;html=1;rounded=0;exitX=1;exitY=0.5;exitDx=0;exitDy=0;entryX=0;entryY=0.5;entryDx=0;entryDy=0;" edge="1" parent="1" source="bE4bb6kHZ0PcFhRLUBJm-4" target="bE4bb6kHZ0PcFhRLUBJm-20">
          <mxGeometry width="50" height="50" relative="1" as="geometry">
            <mxPoint x="400" y="210" as="sourcePoint" />
            <mxPoint x="450" y="160" as="targetPoint" />
          </mxGeometry>
        </mxCell>
        <mxCell id="bE4bb6kHZ0PcFhRLUBJm-22" value="" style="endArrow=none;html=1;rounded=0;exitX=1;exitY=0.5;exitDx=0;exitDy=0;entryX=0;entryY=0.5;entryDx=0;entryDy=0;" edge="1" parent="1" source="bE4bb6kHZ0PcFhRLUBJm-20" target="bE4bb6kHZ0PcFhRLUBJm-19">
          <mxGeometry width="50" height="50" relative="1" as="geometry">
            <mxPoint x="270" y="270" as="sourcePoint" />
            <mxPoint x="395" y="270" as="targetPoint" />
          </mxGeometry>
        </mxCell>
        <mxCell id="bE4bb6kHZ0PcFhRLUBJm-23" value="userid" style="ellipse;whiteSpace=wrap;html=1;fillColor=#ffe6cc;strokeColor=#d79b00;" vertex="1" parent="1">
          <mxGeometry x="780" y="70" width="60" height="40" as="geometry" />
        </mxCell>
        <mxCell id="bE4bb6kHZ0PcFhRLUBJm-24" value="" style="endArrow=none;html=1;rounded=0;entryX=0.5;entryY=1;entryDx=0;entryDy=0;exitX=0.5;exitY=0;exitDx=0;exitDy=0;" edge="1" parent="1" source="bE4bb6kHZ0PcFhRLUBJm-19" target="bE4bb6kHZ0PcFhRLUBJm-23">
          <mxGeometry width="50" height="50" relative="1" as="geometry">
            <mxPoint x="210" y="240" as="sourcePoint" />
            <mxPoint x="395" y="90" as="targetPoint" />
          </mxGeometry>
        </mxCell>
        <mxCell id="bE4bb6kHZ0PcFhRLUBJm-25" value="name" style="ellipse;whiteSpace=wrap;html=1;" vertex="1" parent="1">
          <mxGeometry x="610" y="-360" width="80" height="60" as="geometry" />
        </mxCell>
        <mxCell id="bE4bb6kHZ0PcFhRLUBJm-26" value="duration" style="ellipse;whiteSpace=wrap;html=1;" vertex="1" parent="1">
          <mxGeometry x="710" y="-340" width="80" height="60" as="geometry" />
        </mxCell>
        <mxCell id="bE4bb6kHZ0PcFhRLUBJm-27" value="locality" style="ellipse;whiteSpace=wrap;html=1;" vertex="1" parent="1">
          <mxGeometry x="380" y="-140" width="80" height="60" as="geometry" />
        </mxCell>
        <mxCell id="bE4bb6kHZ0PcFhRLUBJm-28" value="id" style="ellipse;whiteSpace=wrap;html=1;" vertex="1" parent="1">
          <mxGeometry x="535" y="-310" width="80" height="60" as="geometry" />
        </mxCell>
        <mxCell id="bE4bb6kHZ0PcFhRLUBJm-29" value="address, pin,city, state" style="ellipse;whiteSpace=wrap;html=1;" vertex="1" parent="1">
          <mxGeometry x="710" y="30" width="70" height="60" as="geometry" />
        </mxCell>
        <mxCell id="bE4bb6kHZ0PcFhRLUBJm-30" value="name" style="ellipse;whiteSpace=wrap;html=1;" vertex="1" parent="1">
          <mxGeometry x="590" y="70" width="60" height="40" as="geometry" />
        </mxCell>
        <mxCell id="bE4bb6kHZ0PcFhRLUBJm-31" value="collage_id" style="ellipse;whiteSpace=wrap;html=1;" vertex="1" parent="1">
          <mxGeometry x="550" y="130" width="60" height="40" as="geometry" />
        </mxCell>
        <mxCell id="bE4bb6kHZ0PcFhRLUBJm-32" value="pin" style="ellipse;whiteSpace=wrap;html=1;" vertex="1" parent="1">
          <mxGeometry x="300" y="-90" width="60" height="40" as="geometry" />
        </mxCell>
        <mxCell id="bE4bb6kHZ0PcFhRLUBJm-33" value="" style="endArrow=none;html=1;rounded=0;entryX=0.5;entryY=1;entryDx=0;entryDy=0;" edge="1" parent="1" target="bE4bb6kHZ0PcFhRLUBJm-29">
          <mxGeometry width="50" height="50" relative="1" as="geometry">
            <mxPoint x="680" y="230" as="sourcePoint" />
            <mxPoint x="820" y="120" as="targetPoint" />
          </mxGeometry>
        </mxCell>
        <mxCell id="bE4bb6kHZ0PcFhRLUBJm-34" value="" style="endArrow=none;html=1;rounded=0;entryX=0.5;entryY=1;entryDx=0;entryDy=0;exitX=0.5;exitY=0;exitDx=0;exitDy=0;" edge="1" parent="1" source="bE4bb6kHZ0PcFhRLUBJm-19" target="bE4bb6kHZ0PcFhRLUBJm-30">
          <mxGeometry width="50" height="50" relative="1" as="geometry">
            <mxPoint x="690" y="240" as="sourcePoint" />
            <mxPoint x="755" y="100" as="targetPoint" />
          </mxGeometry>
        </mxCell>
        <mxCell id="bE4bb6kHZ0PcFhRLUBJm-35" value="1" style="text;html=1;align=center;verticalAlign=middle;resizable=0;points=[];autosize=1;strokeColor=none;fillColor=none;" vertex="1" parent="1">
          <mxGeometry x="315" y="235" width="30" height="30" as="geometry" />
        </mxCell>
        <mxCell id="bE4bb6kHZ0PcFhRLUBJm-36" value="n" style="text;html=1;align=center;verticalAlign=middle;resizable=0;points=[];autosize=1;strokeColor=none;fillColor=none;" vertex="1" parent="1">
          <mxGeometry x="505" y="235" width="30" height="30" as="geometry" />
        </mxCell>
        <mxCell id="bE4bb6kHZ0PcFhRLUBJm-37" value="" style="endArrow=none;html=1;rounded=0;entryX=0.5;entryY=1;entryDx=0;entryDy=0;exitX=0.5;exitY=0;exitDx=0;exitDy=0;" edge="1" parent="1" source="bE4bb6kHZ0PcFhRLUBJm-19" target="bE4bb6kHZ0PcFhRLUBJm-31">
          <mxGeometry width="50" height="50" relative="1" as="geometry">
            <mxPoint x="680" y="230" as="sourcePoint" />
            <mxPoint x="690" y="70" as="targetPoint" />
          </mxGeometry>
        </mxCell>
        <mxCell id="bE4bb6kHZ0PcFhRLUBJm-38" value="&lt;span style=&quot;background-color: rgb(255, 255, 255);&quot;&gt;departments&lt;/span&gt;" style="rounded=0;whiteSpace=wrap;html=1;labelBackgroundColor=#FFE599;" vertex="1" parent="1">
          <mxGeometry x="610" y="-190" width="120" height="60" as="geometry" />
        </mxCell>
        <mxCell id="bE4bb6kHZ0PcFhRLUBJm-39" value="" style="endArrow=none;html=1;rounded=0;entryX=0.67;entryY=1.017;entryDx=0;entryDy=0;entryPerimeter=0;" edge="1" parent="1" target="bE4bb6kHZ0PcFhRLUBJm-28">
          <mxGeometry width="50" height="50" relative="1" as="geometry">
            <mxPoint x="660" y="-190" as="sourcePoint" />
            <mxPoint x="450" y="-150" as="targetPoint" />
          </mxGeometry>
        </mxCell>
        <mxCell id="bE4bb6kHZ0PcFhRLUBJm-40" value="" style="endArrow=none;html=1;rounded=0;entryX=0.5;entryY=1;entryDx=0;entryDy=0;" edge="1" parent="1" target="bE4bb6kHZ0PcFhRLUBJm-25">
          <mxGeometry width="50" height="50" relative="1" as="geometry">
            <mxPoint x="660" y="-190" as="sourcePoint" />
            <mxPoint x="598.5999999999999" y="-238.98000000000002" as="targetPoint" />
          </mxGeometry>
        </mxCell>
        <mxCell id="bE4bb6kHZ0PcFhRLUBJm-41" value="" style="endArrow=none;html=1;rounded=0;entryX=0.5;entryY=1;entryDx=0;entryDy=0;" edge="1" parent="1" target="bE4bb6kHZ0PcFhRLUBJm-26">
          <mxGeometry width="50" height="50" relative="1" as="geometry">
            <mxPoint x="660" y="-190" as="sourcePoint" />
            <mxPoint x="660" y="-290" as="targetPoint" />
          </mxGeometry>
        </mxCell>
        <mxCell id="bE4bb6kHZ0PcFhRLUBJm-42" value="can have" style="rhombus;whiteSpace=wrap;html=1;" vertex="1" parent="1">
          <mxGeometry x="630" y="-60" width="80" height="80" as="geometry" />
        </mxCell>
        <mxCell id="bE4bb6kHZ0PcFhRLUBJm-43" value="" style="endArrow=none;html=1;rounded=0;entryX=0.5;entryY=1;entryDx=0;entryDy=0;exitX=0.5;exitY=0;exitDx=0;exitDy=0;" edge="1" parent="1" source="bE4bb6kHZ0PcFhRLUBJm-42" target="bE4bb6kHZ0PcFhRLUBJm-38">
          <mxGeometry width="50" height="50" relative="1" as="geometry">
            <mxPoint x="400" y="100" as="sourcePoint" />
            <mxPoint x="450" y="50" as="targetPoint" />
          </mxGeometry>
        </mxCell>
        <mxCell id="bE4bb6kHZ0PcFhRLUBJm-45" value="n" style="edgeLabel;html=1;align=center;verticalAlign=middle;resizable=0;points=[];" vertex="1" connectable="0" parent="bE4bb6kHZ0PcFhRLUBJm-43">
          <mxGeometry x="0.3086" y="1" relative="1" as="geometry">
            <mxPoint as="offset" />
          </mxGeometry>
        </mxCell>
        <mxCell id="bE4bb6kHZ0PcFhRLUBJm-44" value="" style="endArrow=none;html=1;rounded=0;exitX=0.5;exitY=1;exitDx=0;exitDy=0;" edge="1" parent="1" source="bE4bb6kHZ0PcFhRLUBJm-42">
          <mxGeometry width="50" height="50" relative="1" as="geometry">
            <mxPoint x="680" y="-50" as="sourcePoint" />
            <mxPoint x="680" y="220" as="targetPoint" />
          </mxGeometry>
        </mxCell>
        <mxCell id="bE4bb6kHZ0PcFhRLUBJm-46" value="1" style="text;html=1;align=center;verticalAlign=middle;resizable=0;points=[];autosize=1;strokeColor=none;fillColor=none;" vertex="1" parent="1">
          <mxGeometry x="665" y="95" width="30" height="30" as="geometry" />
        </mxCell>
      </root>
    </mxGraphModel>
  </diagram>
</mxfile>
